<svg aria-roledescription="er" viewBox="0 0 477.28558349609375 314" style="max-width: 477.286px; background-color: white;" xmlns:xlink="http://www.w3.org/1999/xlink" xmlns="http://www.w3.org/2000/svg" width="100%" id="mermaid-0"><style>#mermaid-0{font-family:"trebuchet ms",verdana,arial,sans-serif;font-size:16px;fill:#000000;}#mermaid-0 .error-icon{fill:#552222;}#mermaid-0 .error-text{fill:#552222;stroke:#552222;}#mermaid-0 .edge-thickness-normal{stroke-width:2px;}#mermaid-0 .edge-thickness-thick{stroke-width:3.5px;}#mermaid-0 .edge-pattern-solid{stroke-dasharray:0;}#mermaid-0 .edge-pattern-dashed{stroke-dasharray:3;}#mermaid-0 .edge-pattern-dotted{stroke-dasharray:2;}#mermaid-0 .marker{fill:#000000;stroke:#000000;}#mermaid-0 .marker.cross{stroke:#000000;}#mermaid-0 svg{font-family:"trebuchet ms",verdana,arial,sans-serif;font-size:16px;}#mermaid-0 .entityBox{fill:#cde498;stroke:#13540c;}#mermaid-0 .attributeBoxOdd{fill:#ffffff;stroke:#13540c;}#mermaid-0 .attributeBoxEven{fill:#f2f2f2;stroke:#13540c;}#mermaid-0 .relationshipLabelBox{fill:hsl(78.1578947368, 58.4615384615%, 84.5098039216%);opacity:0.7;background-color:hsl(78.1578947368, 58.4615384615%, 84.5098039216%);}#mermaid-0 .relationshipLabelBox rect{opacity:0.5;}#mermaid-0 .relationshipLine{stroke:#000000;}#mermaid-0 .entityTitleText{text-anchor:middle;font-size:18px;fill:#000000;}#mermaid-0 :root{--mermaid-font-family:"trebuchet ms",verdana,arial,sans-serif;}</style><g/><defs><marker orient="auto" markerHeight="18" markerWidth="18" refY="9" refX="0" id="ONLY_ONE_START"><path d="M9,0 L9,18 M15,0 L15,18" fill="none" stroke="gray"/></marker></defs><defs><marker orient="auto" markerHeight="18" markerWidth="18" refY="9" refX="18" id="ONLY_ONE_END"><path d="M3,0 L3,18 M9,0 L9,18" fill="none" stroke="gray"/></marker></defs><defs><marker orient="auto" markerHeight="18" markerWidth="30" refY="9" refX="0" id="ZERO_OR_ONE_START"><circle r="6" cy="9" cx="21" fill="white" stroke="gray"/><path d="M9,0 L9,18" fill="none" stroke="gray"/></marker></defs><defs><marker orient="auto" markerHeight="18" markerWidth="30" refY="9" refX="30" id="ZERO_OR_ONE_END"><circle r="6" cy="9" cx="9" fill="white" stroke="gray"/><path d="M21,0 L21,18" fill="none" stroke="gray"/></marker></defs><defs><marker orient="auto" markerHeight="36" markerWidth="45" refY="18" refX="18" id="ONE_OR_MORE_START"><path d="M0,18 Q 18,0 36,18 Q 18,36 0,18 M42,9 L42,27" fill="none" stroke="gray"/></marker></defs><defs><marker orient="auto" markerHeight="36" markerWidth="45" refY="18" refX="27" id="ONE_OR_MORE_END"><path d="M3,9 L3,27 M9,18 Q27,0 45,18 Q27,36 9,18" fill="none" stroke="gray"/></marker></defs><defs><marker orient="auto" markerHeight="36" markerWidth="57" refY="18" refX="18" id="ZERO_OR_MORE_START"><circle r="6" cy="18" cx="48" fill="white" stroke="gray"/><path d="M0,18 Q18,0 36,18 Q18,36 0,18" fill="none" stroke="gray"/></marker></defs><defs><marker orient="auto" markerHeight="36" markerWidth="57" refY="18" refX="39" id="ZERO_OR_MORE_END"><circle r="6" cy="18" cx="9" fill="white" stroke="gray"/><path d="M21,18 Q39,0 57,18 Q39,36 21,18" fill="none" stroke="gray"/></marker></defs><path style="stroke: gray; fill: none;" marker-start="url(#ZERO_OR_MORE_START)" marker-end="url(#ONLY_ONE_END)" d="M82.61030578613281,95L82.61030578613281,103.33333333333333C82.61030578613281,111.66666666666667,82.61030578613281,128.33333333333334,86.79791047625007,145C90.9855151663673,161.66666666666666,99.36072454660183,178.33333333333334,103.54832923671908,186.66666666666666L107.73593392683634,195" class="er relationshipLine"/><path style="stroke: gray; fill: none;" marker-start="url(#ZERO_OR_MORE_START)" marker-end="url(#ONLY_ONE_END)" d="M366.2498228890555,83L372.1545847938174,93.33333333333333C378.0593466985793,103.66666666666667,389.8688705081031,124.33333333333333,395.773632412865,145C401.67839431762695,165.66666666666666,401.67839431762695,186.33333333333334,401.67839431762695,196.66666666666666L401.67839431762695,207" class="er relationshipLine"/><path style="stroke: gray; fill: none;" marker-start="url(#ZERO_OR_MORE_START)" marker-end="url(#ONLY_ONE_END)" d="M318.816053074428,83L305.4992873418899,93.33333333333333C292.18252160935174,103.66666666666667,265.5489901442755,124.33333333333333,243.32894527496464,143C221.10890040565377,161.66666666666666,203.3023421321083,178.33333333333334,194.39906299533558,186.66666666666666L185.49578385856285,195" class="er relationshipLine"/><g transform="translate(62.691612243652344,195 )" id="entity-habits-e0f5ee67-d988-488e-af8e-6801e1ecdbfb"><rect height="99" width="139.83738708496094" y="0" x="0" class="er entityBox"/><text style="dominant-baseline: middle; text-anchor: middle; font-size: 12px;" transform="translate(69.91869354248047,13.5)" y="0" x="0" id="text-entity-habits-e0f5ee67-d988-488e-af8e-6801e1ecdbfb" class="er entityLabel">habits</text><rect height="24" width="56.392974853515625" y="27" x="0" class="er attributeBoxOdd"/><text style="dominant-baseline: middle; font-size: 10.2px;" transform="translate(5,39)" y="0" x="0" id="text-entity-habits-e0f5ee67-d988-488e-af8e-6801e1ecdbfb-attr-1-type" class="er entityLabel">String</text><rect height="24" width="60.281036376953125" y="27" x="56.392974853515625" class="er attributeBoxOdd"/><text style="dominant-baseline: middle; font-size: 10.2px;" transform="translate(61.392974853515625,39)" y="0" x="0" id="text-entity-habits-e0f5ee67-d988-488e-af8e-6801e1ecdbfb-attr-1-name" class="er entityLabel">id</text><rect height="24" width="23.163375854492188" y="27" x="116.67401123046875" class="er attributeBoxOdd"/><text style="dominant-baseline: middle; font-size: 10.2px;" transform="translate(121.67401123046875,39)" y="0" x="0" id="text-entity-habits-e0f5ee67-d988-488e-af8e-6801e1ecdbfb-attr-1-key" class="er entityLabel">PK</text><rect height="24" width="56.392974853515625" y="51" x="0" class="er attributeBoxEven"/><text style="dominant-baseline: middle; font-size: 10.2px;" transform="translate(5,63)" y="0" x="0" id="text-entity-habits-e0f5ee67-d988-488e-af8e-6801e1ecdbfb-attr-2-type" class="er entityLabel">String</text><rect height="24" width="60.281036376953125" y="51" x="56.392974853515625" class="er attributeBoxEven"/><text style="dominant-baseline: middle; font-size: 10.2px;" transform="translate(61.392974853515625,63)" y="0" x="0" id="text-entity-habits-e0f5ee67-d988-488e-af8e-6801e1ecdbfb-attr-2-name" class="er entityLabel">title</text><rect height="24" width="23.163375854492188" y="51" x="116.67401123046875" class="er attributeBoxEven"/><text style="dominant-baseline: middle; font-size: 10.2px;" transform="translate(121.67401123046875,63)" y="0" x="0" id="text-entity-habits-e0f5ee67-d988-488e-af8e-6801e1ecdbfb-attr-2-key" class="er entityLabel"/><rect height="24" width="56.392974853515625" y="75" x="0" class="er attributeBoxOdd"/><text style="dominant-baseline: middle; font-size: 10.2px;" transform="translate(5,87)" y="0" x="0" id="text-entity-habits-e0f5ee67-d988-488e-af8e-6801e1ecdbfb-attr-3-type" class="er entityLabel">DateTime</text><rect height="24" width="60.281036376953125" y="75" x="56.392974853515625" class="er attributeBoxOdd"/><text style="dominant-baseline: middle; font-size: 10.2px;" transform="translate(61.392974853515625,87)" y="0" x="0" id="text-entity-habits-e0f5ee67-d988-488e-af8e-6801e1ecdbfb-attr-3-name" class="er entityLabel">created_at</text><rect height="24" width="23.163375854492188" y="75" x="116.67401123046875" class="er attributeBoxOdd"/><text style="dominant-baseline: middle; font-size: 10.2px;" transform="translate(121.67401123046875,87)" y="0" x="0" id="text-entity-habits-e0f5ee67-d988-488e-af8e-6801e1ecdbfb-attr-3-key" class="er entityLabel"/></g><g transform="translate(20,20 )" id="entity-habitweekdays-e11b33b3-a01c-41fd-8e39-12fae700db3d"><rect height="75" width="125.22061157226562" y="0" x="0" class="er entityBox"/><text style="dominant-baseline: middle; text-anchor: middle; font-size: 12px;" transform="translate(62.61030578613281,13.5)" y="0" x="0" id="text-entity-habitweekdays-e11b33b3-a01c-41fd-8e39-12fae700db3d" class="er entityLabel">habit_week_days</text><rect height="24" width="40.65290323893229" y="27" x="0" class="er attributeBoxOdd"/><text style="dominant-baseline: middle; font-size: 10.2px;" transform="translate(5,39)" y="0" x="0" id="text-entity-habitweekdays-e11b33b3-a01c-41fd-8e39-12fae700db3d-attr-1-type" class="er entityLabel">String</text><rect height="24" width="59.42330423990885" y="27" x="40.65290323893229" class="er attributeBoxOdd"/><text style="dominant-baseline: middle; font-size: 10.2px;" transform="translate(45.65290323893229,39)" y="0" x="0" id="text-entity-habitweekdays-e11b33b3-a01c-41fd-8e39-12fae700db3d-attr-1-name" class="er entityLabel">id</text><rect height="24" width="25.14440409342448" y="27" x="100.07620747884114" class="er attributeBoxOdd"/><text style="dominant-baseline: middle; font-size: 10.2px;" transform="translate(105.07620747884114,39)" y="0" x="0" id="text-entity-habitweekdays-e11b33b3-a01c-41fd-8e39-12fae700db3d-attr-1-key" class="er entityLabel">PK</text><rect height="24" width="40.65290323893229" y="51" x="0" class="er attributeBoxEven"/><text style="dominant-baseline: middle; font-size: 10.2px;" transform="translate(5,63)" y="0" x="0" id="text-entity-habitweekdays-e11b33b3-a01c-41fd-8e39-12fae700db3d-attr-2-type" class="er entityLabel">Int</text><rect height="24" width="59.42330423990885" y="51" x="40.65290323893229" class="er attributeBoxEven"/><text style="dominant-baseline: middle; font-size: 10.2px;" transform="translate(45.65290323893229,63)" y="0" x="0" id="text-entity-habitweekdays-e11b33b3-a01c-41fd-8e39-12fae700db3d-attr-2-name" class="er entityLabel">week_day</text><rect height="24" width="25.14440409342448" y="51" x="100.07620747884114" class="er attributeBoxEven"/><text style="dominant-baseline: middle; font-size: 10.2px;" transform="translate(105.07620747884114,63)" y="0" x="0" id="text-entity-habitweekdays-e11b33b3-a01c-41fd-8e39-12fae700db3d-attr-2-key" class="er entityLabel"/></g><g transform="translate(346.07121658325195,207 )" id="entity-days-56565394-0259-4db7-b5ed-9b05eefa6345"><rect height="75" width="111.21435546875" y="0" x="0" class="er entityBox"/><text style="dominant-baseline: middle; text-anchor: middle; font-size: 12px;" transform="translate(55.607177734375,13.5)" y="0" x="0" id="text-entity-days-56565394-0259-4db7-b5ed-9b05eefa6345" class="er entityLabel">days</text><rect height="24" width="56.392974853515625" y="27" x="0" class="er attributeBoxOdd"/><text style="dominant-baseline: middle; font-size: 10.2px;" transform="translate(5,39)" y="0" x="0" id="text-entity-days-56565394-0259-4db7-b5ed-9b05eefa6345-attr-1-type" class="er entityLabel">String</text><rect height="24" width="31.658004760742188" y="27" x="56.392974853515625" class="er attributeBoxOdd"/><text style="dominant-baseline: middle; font-size: 10.2px;" transform="translate(61.392974853515625,39)" y="0" x="0" id="text-entity-days-56565394-0259-4db7-b5ed-9b05eefa6345-attr-1-name" class="er entityLabel">id</text><rect height="24" width="23.163375854492188" y="27" x="88.05097961425781" class="er attributeBoxOdd"/><text style="dominant-baseline: middle; font-size: 10.2px;" transform="translate(93.05097961425781,39)" y="0" x="0" id="text-entity-days-56565394-0259-4db7-b5ed-9b05eefa6345-attr-1-key" class="er entityLabel">PK</text><rect height="24" width="56.392974853515625" y="51" x="0" class="er attributeBoxEven"/><text style="dominant-baseline: middle; font-size: 10.2px;" transform="translate(5,63)" y="0" x="0" id="text-entity-days-56565394-0259-4db7-b5ed-9b05eefa6345-attr-2-type" class="er entityLabel">DateTime</text><rect height="24" width="31.658004760742188" y="51" x="56.392974853515625" class="er attributeBoxEven"/><text style="dominant-baseline: middle; font-size: 10.2px;" transform="translate(61.392974853515625,63)" y="0" x="0" id="text-entity-days-56565394-0259-4db7-b5ed-9b05eefa6345-attr-2-name" class="er entityLabel">date</text><rect height="24" width="23.163375854492188" y="51" x="88.05097961425781" class="er attributeBoxEven"/><text style="dominant-baseline: middle; font-size: 10.2px;" transform="translate(93.05097961425781,63)" y="0" x="0" id="text-entity-days-56565394-0259-4db7-b5ed-9b05eefa6345-attr-2-key" class="er entityLabel"/></g><g transform="translate(301.67839431762695,32 )" id="entity-dayhabits-08842780-48e6-499f-9247-aaba1136cead"><rect height="51" width="100" y="0" x="0" class="er entityBox"/><text style="dominant-baseline: middle; text-anchor: middle; font-size: 12px;" transform="translate(50,13.5)" y="0" x="0" id="text-entity-dayhabits-08842780-48e6-499f-9247-aaba1136cead" class="er entityLabel">day_habits</text><rect height="24" width="45.09137471516927" y="27" x="0" class="er attributeBoxOdd"/><text style="dominant-baseline: middle; font-size: 10.2px;" transform="translate(5,39)" y="0" x="0" id="text-entity-dayhabits-08842780-48e6-499f-9247-aaba1136cead-attr-1-type" class="er entityLabel">String</text><rect height="24" width="25.32574971516927" y="27" x="45.09137471516927" class="er attributeBoxOdd"/><text style="dominant-baseline: middle; font-size: 10.2px;" transform="translate(50.09137471516927,39)" y="0" x="0" id="text-entity-dayhabits-08842780-48e6-499f-9247-aaba1136cead-attr-1-name" class="er entityLabel">id</text><rect height="24" width="29.582875569661457" y="27" x="70.41712443033855" class="er attributeBoxOdd"/><text style="dominant-baseline: middle; font-size: 10.2px;" transform="translate(75.41712443033855,39)" y="0" x="0" id="text-entity-dayhabits-08842780-48e6-499f-9247-aaba1136cead-attr-1-key" class="er entityLabel">PK</text></g><rect height="17" width="29.624160766601562" y="138.43724060058594" x="72.49110412597656" class="er relationshipLabelBox"/><text style="text-anchor: middle; dominant-baseline: middle; font-size: 12px;" y="146.93724060058594" x="87.30318450927734" id="rel1" class="er relationshipLabel">habit</text><rect height="17" width="21.112091064453125" y="133.46543884277344" x="384.3089141845703" class="er relationshipLabelBox"/><text style="text-anchor: middle; dominant-baseline: middle; font-size: 12px;" y="141.96543884277344" x="394.8649597167969" id="rel2" class="er relationshipLabel">day</text><rect height="17" width="29.624176025390625" y="128.53445434570312" x="235.68356323242188" class="er relationshipLabelBox"/><text style="text-anchor: middle; dominant-baseline: middle; font-size: 12px;" y="137.03445434570312" x="250.4956512451172" id="rel3" class="er relationshipLabel">habit</text></svg>